<?xml version="1.0" standalone="no"?>
<!DOCTYPE svg PUBLIC "-//W3C//DTD SVG 20010904//EN"
 "http://www.w3.org/TR/2001/REC-SVG-20010904/DTD/svg10.dtd">
<svg version="1.0" xmlns="http://www.w3.org/2000/svg"
 width="1440.000000pt" height="1440.000000pt" viewBox="0 0 1440.000000 1440.000000"
 preserveAspectRatio="xMidYMid meet">
<metadata>
Created by potrace 1.11, written by Peter Selinger 2001-2013
</metadata>
<g transform="translate(0.000000,1440.000000) scale(0.100000,-0.100000)"
fill="#000000" stroke="none">
<path d="M6900 13841 c10 -19 8 -67 -3 -78 -4 -3 -1 -13 6 -21 9 -13 9 -14 0
-8 -13 7 -17 -4 -14 -31 1 -7 -2 -13 -7 -13 -9 0 -26 -53 -25 -77 0 -7 -4 -13
-9 -13 -6 0 -8 -6 -5 -14 3 -8 -2 -16 -14 -19 -10 -3 -19 -12 -19 -21 0 -9 -6
-13 -13 -10 -8 3 -20 -2 -27 -11 -7 -8 -19 -15 -27 -15 -8 0 -11 -4 -8 -10 3
-5 2 -10 -4 -10 -10 0 -106 -90 -106 -100 0 -3 -10 -16 -22 -30 -45 -50 -51
-58 -45 -65 4 -3 1 -10 -6 -14 -8 -4 -14 -14 -15 -22 -2 -8 -6 -20 -10 -26 -5
-7 -5 -18 -2 -23 3 -6 0 -13 -9 -16 -8 -3 -12 -12 -10 -19 3 -7 1 -16 -5 -20
-6 -3 -11 -11 -11 -16 0 -6 4 -8 8 -5 5 3 9 -1 9 -9 0 -8 -4 -12 -9 -9 -4 3
-9 -11 -9 -30 -2 -44 -3 -48 -11 -62 -4 -6 -4 -14 -1 -18 4 -4 8 -28 10 -54 3
-47 10 -95 13 -99 2 -2 3 -6 4 -10 1 -5 5 -14 9 -20 5 -8 3 -13 -5 -13 -9 0
-9 -3 2 -10 8 -5 11 -10 6 -10 -5 0 -4 -6 1 -12 15 -19 12 -50 -4 -44 -7 3
-12 0 -10 -7 1 -7 -6 -11 -15 -11 -10 1 -18 -3 -18 -8 0 -5 -6 -8 -12 -5 -7 2
-21 0 -30 -5 -12 -6 -18 -5 -18 3 0 9 -3 9 -14 0 -13 -11 -54 -21 -98 -24 -10
-1 -18 -4 -18 -7 0 -4 -6 -7 -12 -8 -35 -3 -54 -8 -59 -15 -3 -4 -16 -10 -29
-12 -13 -2 -26 -8 -29 -13 -3 -4 -15 -8 -26 -7 -11 0 -26 -6 -33 -13 -8 -7
-17 -10 -22 -7 -4 3 -11 -2 -14 -11 -3 -8 -10 -13 -15 -9 -5 3 -12 1 -16 -5
-4 -6 -11 -8 -16 -5 -5 4 -9 1 -9 -5 0 -6 -4 -8 -10 -5 -5 3 -10 1 -10 -5 0
-6 -4 -8 -10 -5 -5 3 -10 1 -10 -4 0 -6 -7 -11 -16 -11 -9 0 -12 -5 -8 -12 4
-7 4 -10 -1 -6 -4 4 -20 1 -36 -8 -16 -8 -29 -11 -29 -7 0 5 -5 0 -11 -9 -5
-10 -17 -18 -24 -18 -8 0 -15 -5 -15 -11 0 -6 -9 -9 -20 -6 -11 3 -17 1 -14
-4 3 -5 -8 -17 -25 -27 -17 -9 -31 -21 -31 -25 0 -5 -5 -5 -10 -2 -6 3 -13 -1
-16 -10 -6 -13 -8 -14 -15 -3 -7 10 -9 9 -9 -5 0 -10 -4 -16 -9 -12 -5 3 -12
1 -16 -5 -4 -6 -11 -7 -17 -4 -7 5 -8 2 -4 -5 5 -8 0 -14 -13 -18 -12 -3 -21
-10 -21 -15 0 -5 -4 -7 -9 -4 -5 3 -12 -1 -15 -10 -3 -8 -10 -13 -15 -10 -5 3
-12 -1 -15 -10 -3 -8 -10 -12 -16 -9 -5 3 -10 2 -10 -4 0 -6 -16 -21 -35 -34
-19 -13 -32 -27 -28 -30 3 -4 1 -7 -6 -7 -7 0 -20 -8 -29 -18 -11 -11 -14 -12
-8 -2 5 8 -10 -4 -32 -27 -22 -24 -48 -43 -57 -43 -11 0 -15 -5 -11 -15 3 -8
0 -15 -7 -15 -7 0 -19 -9 -27 -20 -8 -11 -20 -20 -27 -20 -7 0 -12 -3 -12 -7
4 -23 -3 -32 -18 -26 -11 4 -14 3 -9 -5 4 -7 1 -15 -8 -18 -9 -3 -14 -10 -11
-14 3 -4 -2 -11 -11 -14 -8 -3 -12 -10 -9 -16 3 -5 1 -10 -5 -10 -6 0 -8 -4
-5 -10 3 -6 -1 -7 -10 -4 -9 4 -15 3 -14 -2 4 -21 -2 -35 -11 -29 -9 6 -14 -8
-11 -28 1 -5 -2 -7 -6 -4 -7 3 -46 -30 -41 -35 6 -8 -50 -87 -57 -81 -4 5 -5
3 -1 -4 3 -6 -4 -22 -16 -34 -13 -12 -17 -18 -9 -14 7 4 3 -7 -10 -26 -13 -19
-27 -36 -32 -37 -4 -2 -5 -8 -1 -13 3 -5 -4 -23 -16 -39 -12 -16 -18 -34 -15
-40 3 -5 1 -10 -5 -10 -6 0 -8 -4 -5 -10 3 -5 1 -10 -5 -10 -7 0 -10 -7 -6
-15 3 -10 -1 -15 -12 -15 -13 0 -14 -2 -4 -9 11 -7 11 -10 0 -22 -7 -8 -14
-23 -16 -34 -7 -53 -15 -81 -24 -86 -6 -4 -6 -9 2 -14 9 -5 9 -9 1 -14 -6 -4
-12 -20 -13 -37 -1 -16 -5 -34 -9 -39 -4 -6 -6 -23 -5 -38 2 -15 0 -27 -5 -27
-5 0 -6 -7 -3 -15 4 -9 0 -15 -7 -15 -9 0 -10 -3 -4 -8 12 -9 16 -42 5 -42 -9
0 -8 -20 3 -37 4 -6 4 -14 -1 -17 -10 -6 -9 -66 1 -83 4 -6 3 -14 -2 -18 -7
-4 -7 -15 -1 -31 6 -14 6 -23 2 -20 -10 6 -9 -25 2 -42 4 -6 4 -16 1 -22 -3
-5 0 -10 7 -10 9 0 9 -3 -2 -10 -8 -5 -10 -10 -5 -10 11 0 12 -9 15 -75 1 -19
6 -37 11 -40 4 -3 6 -12 2 -20 -3 -9 1 -15 8 -15 11 0 11 -3 -1 -10 -8 -5 -10
-10 -5 -10 6 0 12 -8 13 -17 3 -32 7 -48 16 -61 4 -7 5 -16 2 -19 -3 -3 -1
-12 5 -20 6 -7 8 -13 3 -13 -5 0 -3 -4 4 -8 7 -5 14 -23 17 -41 2 -18 12 -40
22 -48 11 -9 12 -12 3 -8 -10 4 -9 2 2 -8 10 -8 15 -17 12 -20 -8 -7 18 -67
28 -67 5 0 7 -3 7 -7 -3 -14 25 -73 34 -73 4 0 5 -4 2 -10 -3 -5 -1 -10 5 -10
6 0 8 -4 5 -10 -3 -5 -2 -10 3 -10 5 0 14 -12 20 -26 7 -14 17 -22 22 -19 6 3
10 -1 10 -10 0 -9 6 -23 13 -30 29 -34 37 -45 31 -45 -4 0 3 -9 16 -20 13 -11
19 -20 15 -20 -4 0 2 -9 15 -20 13 -11 20 -20 16 -20 -4 0 -1 -7 8 -15 8 -8
19 -15 25 -15 6 0 10 -6 8 -12 -1 -7 4 -12 10 -11 7 2 12 0 11 -5 -2 -4 12
-23 30 -42 78 -84 81 -87 75 -109 -3 -11 -12 -21 -19 -21 -8 0 -14 -4 -14 -10
0 -5 -9 -10 -20 -10 -11 0 -20 -5 -20 -12 0 -6 -3 -8 -7 -5 -3 4 -17 0 -31 -9
-13 -9 -21 -11 -18 -5 5 7 1 9 -8 5 -9 -3 -16 -9 -16 -13 0 -7 -7 -9 -50 -13
-11 -1 -20 -6 -20 -10 0 -4 -9 -8 -20 -8 -11 0 -20 -5 -20 -11 0 -5 -4 -7 -10
-4 -5 3 -10 2 -10 -4 0 -6 -7 -8 -15 -5 -8 4 -15 2 -15 -4 0 -6 -8 -8 -19 -5
-10 2 -25 -3 -34 -12 -9 -9 -26 -17 -37 -18 -11 -1 -20 -5 -20 -9 0 -4 -7 -8
-15 -8 -8 0 -15 -5 -15 -11 0 -5 -4 -8 -9 -4 -6 3 -14 -3 -20 -12 -8 -13 -10
-14 -11 -4 0 11 -4 10 -13 -4 -8 -10 -19 -15 -24 -12 -6 4 -14 0 -17 -9 -3 -8
-10 -12 -16 -9 -5 3 -10 1 -10 -6 0 -6 -8 -9 -20 -6 -11 3 -18 1 -15 -3 3 -5
-3 -11 -14 -15 -11 -3 -22 -12 -25 -20 -3 -8 -14 -15 -25 -15 -10 0 -22 -7
-25 -16 -3 -8 -10 -12 -16 -9 -6 3 -13 -1 -16 -10 -4 -9 -12 -14 -18 -12 -13
5 -38 -18 -29 -27 4 -3 0 -6 -7 -6 -8 0 -40 -18 -71 -40 -32 -22 -61 -40 -66
-40 -4 0 -21 -11 -36 -25 -15 -14 -27 -23 -27 -19 0 3 -12 -8 -27 -25 -15 -17
-33 -31 -40 -31 -16 0 -63 -47 -55 -55 4 -3 -2 -3 -12 1 -14 5 -17 4 -12 -4 4
-7 1 -12 -8 -12 -9 0 -16 -5 -16 -12 0 -6 -3 -9 -6 -6 -3 4 -22 -11 -41 -33
-19 -21 -42 -39 -50 -39 -8 0 -12 -4 -8 -9 3 -5 -4 -12 -15 -16 -11 -3 -19 -9
-17 -13 1 -4 -2 -9 -8 -12 -5 -3 -25 -23 -45 -45 -43 -49 -62 -65 -73 -58 -4
2 -6 1 -5 -4 5 -13 -64 -83 -75 -76 -6 3 -7 1 -3 -6 4 -6 0 -14 -8 -17 -9 -3
-13 -11 -9 -17 4 -6 0 -8 -11 -4 -9 4 -15 3 -11 -2 3 -5 -8 -23 -25 -39 -16
-17 -30 -36 -30 -42 0 -6 -4 -9 -9 -5 -5 3 -12 -4 -16 -15 -4 -11 -11 -18 -16
-15 -5 4 -9 -3 -9 -15 0 -12 -4 -19 -8 -16 -5 3 -16 -4 -25 -15 -9 -10 -13
-19 -9 -19 4 -1 -3 -9 -15 -19 -12 -10 -19 -21 -16 -25 4 -3 1 -6 -5 -6 -7 0
-12 -7 -12 -15 0 -9 -7 -18 -15 -21 -8 -4 -13 -10 -10 -14 3 -5 -5 -20 -17
-34 -45 -49 -56 -64 -51 -70 4 -3 1 -6 -6 -6 -17 0 -101 -91 -107 -117 -3 -12
-15 -25 -25 -28 -11 -4 -17 -11 -14 -16 4 -5 1 -9 -5 -9 -7 0 -10 -6 -7 -14 3
-8 -1 -17 -9 -20 -9 -3 -12 -11 -9 -16 4 -6 1 -9 -7 -8 -7 2 -12 -5 -12 -14 1
-10 -3 -18 -10 -18 -11 0 -72 -99 -68 -112 1 -4 -7 -10 -18 -13 -11 -4 -18
-10 -15 -15 3 -5 -1 -15 -9 -23 -8 -8 -12 -17 -9 -21 4 -3 1 -6 -6 -6 -7 0 -9
-4 -6 -10 3 -6 1 -10 -5 -10 -6 0 -8 -4 -5 -10 3 -6 1 -10 -4 -10 -6 0 -11 -7
-11 -15 0 -8 -5 -15 -11 -15 -6 0 -8 -7 -5 -16 4 -10 0 -18 -13 -21 -12 -3
-17 -11 -14 -19 3 -8 -2 -17 -11 -20 -9 -3 -14 -10 -11 -14 3 -5 -2 -15 -10
-23 -8 -9 -15 -21 -15 -27 0 -7 -9 -23 -20 -37 -11 -14 -20 -32 -20 -39 0 -8
-5 -14 -11 -14 -5 0 -7 -5 -4 -10 3 -6 1 -10 -4 -10 -6 0 -11 -7 -11 -15 0 -8
-5 -15 -11 -15 -5 0 -7 -4 -4 -10 3 -5 1 -10 -5 -10 -6 0 -8 -4 -5 -10 3 -5 2
-10 -3 -10 -5 0 -15 -18 -22 -40 -7 -22 -17 -40 -22 -40 -5 0 -6 -4 -3 -10 3
-5 1 -10 -5 -10 -6 0 -9 -4 -5 -9 3 -5 -2 -17 -11 -25 -8 -9 -12 -16 -8 -16 3
0 1 -7 -6 -15 -7 -8 -9 -15 -4 -15 5 0 4 -4 -3 -8 -6 -4 -13 -14 -15 -22 -2
-8 -10 -21 -18 -28 -8 -8 -9 -11 -3 -7 9 4 11 1 7 -9 -3 -9 -10 -16 -14 -16
-4 0 -11 -7 -14 -16 -4 -10 -2 -13 7 -9 6 4 4 0 -6 -8 -10 -9 -18 -18 -19 -21
0 -21 -12 -46 -21 -46 -6 0 -8 -3 -4 -6 3 -3 -3 -28 -13 -55 -11 -27 -17 -49
-14 -49 4 0 1 -7 -6 -15 -10 -12 -10 -15 1 -15 11 0 11 -2 -1 -10 -8 -5 -11
-10 -6 -10 4 0 2 -10 -6 -22 -8 -13 -14 -33 -13 -45 1 -14 -4 -23 -12 -23 -8
0 -12 -4 -9 -8 6 -10 -53 -98 -64 -95 -4 1 -7 -3 -7 -10 1 -23 -15 -77 -23
-77 -5 0 -6 -9 -3 -20 3 -12 0 -20 -8 -20 -7 0 -10 -3 -6 -6 3 -3 -1 -23 -8
-44 -7 -21 -11 -41 -8 -44 4 -3 0 -6 -7 -6 -7 0 -10 -3 -7 -7 4 -3 2 -12 -4
-19 -6 -8 -9 -20 -6 -29 4 -8 0 -21 -9 -29 -10 -10 -11 -17 -3 -22 8 -5 8 -8
0 -13 -13 -8 -23 -45 -22 -78 0 -13 -3 -23 -8 -23 -8 0 -21 -58 -24 -107 0
-13 -5 -23 -10 -23 -5 0 -7 -7 -4 -15 4 -8 3 -16 -1 -19 -7 -4 -13 -44 -16
-108 0 -16 -3 -28 -6 -28 -3 0 -7 -28 -8 -62 -1 -35 -7 -67 -11 -71 -5 -5 -5
-22 -1 -37 6 -20 4 -31 -3 -34 -9 -5 -9 -8 0 -12 9 -4 10 -11 3 -24 -7 -13 -7
-21 0 -25 6 -4 7 -12 3 -18 -10 -17 -11 -47 -1 -47 5 0 6 -5 2 -12 -11 -17
-11 -78 -1 -85 4 -2 2 -12 -5 -21 -11 -13 -11 -14 1 -7 11 6 12 5 5 -6 -13
-21 -14 -39 -2 -39 6 0 5 -7 -3 -16 -7 -9 -9 -18 -3 -22 12 -9 16 -105 4 -97
-5 3 -3 -6 4 -19 7 -14 12 -36 11 -48 -1 -13 3 -26 9 -30 7 -5 7 -8 -2 -8 -8
0 -10 -5 -5 -12 4 -7 8 -22 9 -33 2 -32 8 -49 19 -57 6 -5 5 -8 -3 -8 -7 0
-10 -4 -7 -10 7 -11 16 -48 17 -70 1 -8 7 -26 15 -40 7 -15 9 -26 3 -28 -5 -2
-3 -11 6 -20 12 -11 13 -17 5 -20 -8 -3 -5 -13 11 -30 13 -14 16 -21 8 -17
-10 5 -8 1 4 -13 11 -12 14 -22 8 -22 -6 0 -9 -7 -6 -15 4 -8 10 -13 14 -10 4
2 7 -3 7 -13 0 -9 5 -31 12 -49 7 -18 13 -36 14 -40 0 -4 7 -14 14 -21 7 -8
11 -18 8 -23 -4 -5 -1 -9 4 -9 6 0 11 -9 11 -20 0 -11 5 -20 11 -20 5 0 7 -4
4 -10 -3 -5 -1 -10 5 -10 6 0 9 -4 6 -9 -3 -5 1 -14 9 -21 8 -7 13 -16 10 -20
-3 -5 2 -16 11 -24 8 -9 12 -16 8 -16 -4 0 3 -8 14 -19 24 -20 29 -36 10 -26
-7 4 -5 0 5 -8 9 -8 17 -19 17 -26 0 -6 5 -11 11 -11 5 0 8 -4 4 -9 -3 -5 4
-13 16 -16 16 -5 18 -9 9 -15 -9 -6 -7 -10 9 -15 12 -3 19 -10 16 -14 -2 -4 7
-18 21 -30 14 -12 22 -26 19 -31 -3 -6 -2 -10 4 -10 10 0 50 -33 106 -87 13
-12 26 -19 29 -16 3 4 6 2 6 -4 0 -6 14 -16 30 -23 17 -7 30 -16 30 -20 0 -4
26 -20 58 -36 31 -15 59 -30 62 -34 3 -3 12 -5 20 -5 8 1 20 -2 26 -7 6 -4 23
-9 38 -10 14 -1 26 -6 26 -10 0 -4 18 -8 41 -8 22 0 38 -4 35 -8 -2 -4 4 -8
15 -8 10 0 19 4 19 7 0 4 12 4 28 0 15 -4 43 -6 62 -4 101 8 144 14 149 21 4
4 15 7 26 6 11 0 26 5 34 10 8 6 16 10 17 9 6 -4 38 10 65 28 14 10 29 16 33
12 3 -3 6 0 6 7 0 7 3 10 7 7 3 -4 19 7 35 23 15 16 28 28 28 25 0 -2 18 14
40 36 22 22 40 43 40 45 0 3 10 15 21 27 12 12 18 16 14 8 -5 -9 -4 -12 3 -7
6 4 8 14 5 23 -4 11 -3 14 5 9 7 -4 12 -1 12 8 0 9 5 16 11 16 5 0 8 4 5 8 -3
5 4 15 15 22 10 8 19 23 19 33 0 10 4 15 10 12 5 -3 12 5 16 19 3 13 12 27 21
30 8 3 11 10 8 16 -3 6 1 13 9 16 9 3 16 13 16 21 0 8 11 29 25 47 14 18 25
40 25 49 0 10 4 17 8 17 5 0 17 18 27 40 10 22 22 40 26 40 5 0 11 11 15 25 7
27 38 50 54 40 15 -9 40 -62 33 -69 -4 -3 1 -6 10 -6 9 0 17 -7 17 -15 0 -8 4
-15 10 -15 5 0 7 -7 4 -15 -4 -8 -1 -15 5 -15 6 0 20 -20 31 -45 11 -24 28
-49 38 -54 9 -6 13 -11 8 -11 -5 0 -1 -9 9 -20 10 -11 15 -20 11 -20 -4 0 2
-12 13 -26 11 -15 18 -31 14 -38 -3 -6 -3 -8 2 -4 10 10 38 -19 30 -32 -3 -5
1 -10 9 -10 8 0 18 -9 21 -20 3 -11 11 -20 16 -20 5 0 8 -3 7 -7 -1 -5 5 -20
15 -34 19 -28 20 -118 2 -131 -7 -5 -7 -8 0 -8 6 0 10 -33 10 -84 -1 -47 3
-82 8 -79 5 3 4 -3 -2 -14 -7 -14 -7 -23 1 -31 9 -9 8 -12 -2 -12 -13 0 -13
-2 0 -10 8 -5 10 -10 5 -10 -7 0 -9 -15 -7 -35 3 -21 8 -32 15 -28 6 4 7 1 1
-8 -11 -19 -13 -59 -2 -59 5 0 4 -8 -1 -18 -7 -13 -6 -23 2 -32 9 -10 9 -14 0
-17 -10 -3 -9 -8 2 -20 12 -12 13 -18 4 -29 -6 -8 -7 -14 -2 -14 5 0 8 -36 8
-80 0 -44 3 -80 6 -80 3 0 5 -12 5 -27 -1 -16 3 -34 8 -41 5 -7 6 -15 3 -19
-4 -3 -1 -13 6 -21 10 -13 9 -14 -2 -7 -10 6 -12 4 -6 -6 5 -7 10 -36 12 -64
7 -105 8 -115 16 -115 4 0 5 -5 2 -10 -4 -6 -1 -18 7 -27 9 -12 9 -15 1 -9 -7
4 -13 3 -13 -3 0 -5 6 -12 13 -14 9 -4 8 -6 -2 -6 -11 -1 -11 -4 -1 -16 7 -8
10 -21 7 -29 -3 -8 -3 -17 1 -20 3 -4 7 -14 8 -24 9 -57 15 -109 15 -124 0
-10 6 -18 12 -18 7 0 6 -4 -3 -10 -8 -5 -10 -10 -4 -10 6 0 11 -7 12 -15 1 -8
3 -22 4 -29 1 -8 5 -14 9 -13 4 1 8 -2 9 -8 1 -5 8 -14 16 -18 8 -4 14 -17 14
-28 0 -11 3 -18 8 -16 4 3 7 -30 7 -74 0 -43 -3 -79 -8 -79 -4 0 1 -12 10 -27
10 -15 12 -24 6 -20 -7 5 -13 4 -13 -2 0 -6 5 -11 11 -11 6 0 9 -7 6 -15 -4
-8 -3 -16 1 -19 4 -2 9 -19 10 -36 1 -18 7 -41 13 -51 5 -11 7 -23 4 -28 -3
-5 2 -17 11 -25 11 -12 12 -16 2 -16 -10 0 -9 -3 2 -10 8 -5 11 -10 6 -10 -5
0 -1 -9 8 -19 13 -14 14 -21 6 -26 -9 -6 -9 -9 0 -15 6 -4 12 -13 13 -21 2 -8
6 -20 10 -26 5 -7 6 -13 2 -13 -3 0 0 -10 7 -22 7 -13 11 -27 10 -32 -2 -4 2
-14 8 -20 5 -7 7 -16 3 -19 -3 -4 -1 -7 6 -7 7 0 11 -6 8 -14 -3 -8 -1 -16 4
-18 6 -2 11 -11 12 -20 2 -9 8 -22 15 -30 6 -8 9 -18 5 -21 -3 -4 -1 -7 6 -7
8 0 10 -7 6 -21 -5 -15 -4 -19 4 -15 9 6 13 -6 10 -30 0 -4 5 -10 11 -14 7 -4
13 -19 13 -33 1 -14 4 -24 7 -22 3 2 11 -3 18 -11 10 -11 10 -14 0 -14 -6 0
-3 -7 8 -15 10 -8 15 -15 11 -15 -4 0 1 -10 13 -22 11 -12 20 -28 20 -35 0 -8
5 -11 10 -8 6 3 10 -1 10 -9 0 -9 7 -16 15 -16 9 0 18 -7 21 -15 4 -8 10 -13
14 -10 5 3 11 -4 15 -15 3 -11 13 -20 22 -20 9 0 13 -6 10 -15 -4 -8 -2 -17 4
-20 5 -4 7 -11 4 -16 -4 -5 -1 -9 4 -9 6 0 11 -7 11 -15 0 -14 17 -39 53 -77
9 -10 17 -22 17 -28 0 -13 36 -31 45 -22 5 4 5 2 2 -4 -4 -6 5 -20 19 -30 15
-11 37 -29 49 -41 13 -12 26 -19 29 -16 3 4 6 2 6 -4 0 -10 36 -27 53 -24 5 1
6 -3 3 -8 -6 -9 22 -26 37 -23 4 1 7 -3 7 -9 0 -5 4 -7 10 -4 6 3 10 1 10 -4
0 -6 9 -11 19 -11 11 0 27 -7 35 -16 10 -9 16 -11 16 -4 0 7 7 5 16 -4 8 -9
20 -14 25 -11 5 4 9 1 9 -5 0 -6 4 -9 9 -5 5 3 12 1 16 -5 4 -6 11 -8 16 -5 5
4 9 0 9 -7 0 -10 2 -10 9 1 6 9 11 10 15 2 4 -6 12 -9 17 -6 5 4 9 2 9 -2 0
-5 17 -10 37 -11 20 -2 42 -7 49 -13 8 -7 14 -7 19 1 4 6 12 7 24 1 9 -5 29
-8 44 -7 15 2 27 -2 27 -8 0 -7 3 -7 8 -1 4 6 25 10 47 10 22 0 43 -4 47 -10
5 -7 8 -6 8 0 0 6 17 10 38 10 20 -1 41 1 46 4 9 4 59 11 109 14 9 1 17 5 17
9 0 4 7 5 15 2 9 -4 15 0 15 7 0 11 3 11 10 -1 6 -10 10 -11 10 -2 0 6 3 11 8
10 4 -1 26 2 49 6 24 4 46 7 49 6 4 -1 10 3 13 8 3 6 24 13 46 16 21 4 43 12
47 19 4 6 8 8 8 3 0 -5 6 -3 13 3 8 6 17 8 20 4 4 -3 7 -1 7 6 0 8 7 11 15 7
8 -3 15 -2 15 2 0 4 20 16 45 27 25 11 45 24 45 29 0 5 3 6 6 3 4 -4 19 2 34
13 16 11 31 20 35 20 4 0 38 32 76 70 38 39 73 70 79 70 6 0 9 4 6 8 -3 5 8
21 25 36 16 15 29 36 29 46 0 10 7 25 15 34 11 10 12 17 4 22 -8 5 -6 10 5 16
9 5 14 13 11 19 -4 5 -1 9 4 9 6 0 11 6 11 14 0 8 7 16 15 20 8 3 12 12 9 21
-3 8 -1 15 5 15 6 0 10 4 9 9 -2 5 6 17 17 26 11 9 13 13 5 9 -12 -7 -13 -5
-3 8 7 8 10 18 6 21 -3 4 -1 7 5 7 7 0 12 6 12 14 0 8 7 16 15 20 8 3 15 0 15
-6 0 -6 3 -9 6 -6 7 7 62 -45 57 -54 -2 -4 1 -9 7 -13 7 -4 6 -13 -1 -27 -8
-15 -8 -19 0 -14 10 7 16 -19 12 -51 -1 -7 3 -13 10 -13 6 0 9 -7 5 -15 -3 -8
-1 -15 4 -15 4 0 11 -14 15 -30 4 -18 11 -27 18 -23 6 4 8 0 4 -10 -3 -10 -3
-17 2 -17 5 0 14 -13 20 -29 7 -15 27 -44 46 -64 18 -19 31 -38 28 -41 -4 -3
-1 -6 6 -6 7 0 9 -4 6 -10 -3 -6 4 -10 16 -10 12 0 20 -3 16 -6 -7 -8 17 -34
32 -34 6 0 11 -6 11 -14 0 -14 27 -31 43 -27 5 1 6 -2 4 -6 -6 -9 13 -27 33
-31 8 -2 17 -8 18 -13 2 -5 8 -7 13 -3 5 3 9 0 9 -6 0 -6 5 -8 10 -5 6 3 10 1
10 -4 0 -6 7 -11 15 -11 8 0 15 -5 15 -10 0 -6 3 -9 8 -8 4 1 20 -4 35 -10 16
-7 33 -12 38 -12 5 0 9 -5 9 -11 0 -6 6 -9 14 -6 7 3 19 0 25 -6 6 -6 11 -8
11 -4 0 4 12 1 28 -6 15 -7 36 -13 47 -13 11 1 35 -7 53 -17 19 -10 31 -13 27
-7 -9 14 1 13 37 -6 19 -10 28 -11 23 -3 -6 9 -4 10 6 3 8 -5 25 -10 39 -10
14 -1 25 -3 25 -4 0 -3 47 -10 89 -13 22 -1 47 -6 55 -11 10 -6 12 -5 7 2 -5
9 7 12 41 13 26 0 57 3 68 5 19 5 61 11 117 17 15 2 31 6 34 10 4 4 16 7 26 7
11 0 17 4 14 9 -3 4 10 7 29 6 19 -1 32 2 29 7 -3 4 4 8 15 8 12 0 21 4 21 9
0 4 11 7 25 6 14 -2 25 2 25 8 0 5 3 7 6 4 4 -3 16 -1 28 5 11 7 24 11 29 10
4 -1 7 2 7 8 0 5 7 10 15 10 8 0 15 5 15 11 0 5 4 8 8 5 5 -3 18 3 28 12 10
10 27 21 37 25 9 3 17 11 17 17 0 6 4 9 9 5 5 -3 17 5 25 17 9 12 16 18 16 13
0 -6 5 -2 11 8 6 9 15 15 20 11 5 -3 9 -2 8 3 -1 4 1 16 6 26 6 15 10 16 16 5
7 -11 9 -11 9 1 0 14 50 66 50 53 0 -4 9 7 20 23 11 17 20 26 20 21 0 -6 6 -1
14 9 8 11 12 23 10 27 -3 5 1 8 8 8 16 0 41 37 33 49 -3 5 2 12 11 15 8 3 12
10 9 16 -3 5 -1 10 6 10 7 0 10 3 6 6 -8 8 51 94 64 94 6 0 7 4 4 10 -3 5 -1
10 4 10 6 0 11 5 11 11 0 7 8 18 18 26 11 10 12 12 2 8 -10 -4 -9 -2 3 8 9 8
17 19 17 26 0 6 5 11 11 11 5 0 8 4 4 9 -3 5 2 17 11 25 8 9 12 16 8 16 -5 0
-3 5 4 12 7 7 12 20 12 30 0 10 5 18 11 18 5 0 7 5 4 10 -3 6 -2 10 3 10 5 0
9 6 9 13 1 20 39 97 46 91 3 -3 4 2 3 12 -2 10 3 24 10 31 7 7 10 22 7 33 -3
12 0 20 6 20 7 0 9 5 6 10 -3 6 -2 10 2 10 5 0 10 9 11 20 4 44 6 50 16 50 6
0 5 4 -2 9 -11 7 -11 10 0 22 7 8 13 23 13 34 0 11 6 29 15 39 9 11 10 16 3
12 -15 -9 -18 10 -3 19 6 4 8 11 5 16 -4 5 -3 15 2 21 4 7 8 26 9 41 2 16 8
36 16 45 11 13 11 14 -1 7 -11 -6 -12 -5 -5 6 10 17 14 34 15 74 1 17 5 35 9
40 4 6 6 21 5 35 -1 14 2 31 8 38 5 6 6 12 2 12 -4 0 -1 8 6 17 11 13 11 15 1
9 -11 -6 -11 -4 -3 13 6 12 16 30 22 42 8 17 8 19 -3 13 -10 -6 -10 -4 1 9 7
9 11 24 7 32 -3 8 0 15 6 15 7 0 7 4 -1 14 -8 10 -8 16 1 24 8 6 13 33 13 65
0 30 3 53 6 51 5 -3 10 36 13 114 0 17 6 32 11 32 6 0 3 5 -5 10 -8 5 -10 10
-5 10 6 0 10 17 9 37 -1 21 2 46 8 57 8 14 7 17 -3 11 -9 -6 -10 -4 -3 6 5 8
9 37 10 64 1 28 3 52 4 55 1 3 1 16 0 29 -1 17 2 21 12 15 11 -6 11 -5 0 8
-13 16 -12 44 2 67 6 9 5 12 -2 7 -8 -4 -9 6 -6 36 3 23 7 46 10 50 3 4 0 8
-6 8 -8 0 -8 6 0 20 6 12 7 20 1 20 -6 0 -6 11 -1 30 5 17 5 30 1 30 -4 0 -8
7 -8 15 0 8 4 12 9 9 13 -8 6 29 -7 38 -7 5 -6 8 0 8 7 0 11 39 10 105 0 58 4
105 9 105 5 0 3 7 -4 15 -10 12 -10 15 1 15 9 0 10 3 4 8 -5 4 -10 28 -10 54
0 27 -3 48 -6 48 -4 0 -7 10 -8 23 -1 40 -4 57 -12 57 -4 0 -6 11 -5 25 0 14
5 25 9 25 5 0 5 4 2 10 -3 5 -1 10 5 10 6 0 9 4 5 9 -3 5 4 16 15 24 11 7 17
17 13 20 -3 4 -1 7 5 7 7 0 11 3 11 8 -3 19 2 33 11 27 6 -3 10 1 10 9 0 9 5
16 11 16 5 0 8 4 4 9 -3 6 1 13 9 18 8 4 24 26 35 48 35 64 45 79 59 88 6 4
12 15 12 24 0 9 8 22 18 29 9 7 17 16 17 21 0 15 29 78 42 91 7 8 11 17 9 21
-3 3 8 6 22 5 15 -1 26 -7 24 -13 -1 -6 5 -11 13 -11 8 0 15 -9 15 -20 0 -11
7 -20 16 -20 8 0 12 -4 9 -10 -3 -5 -1 -10 6 -10 7 0 10 -3 6 -6 -3 -4 1 -13
9 -21 8 -8 12 -19 9 -24 -4 -5 -1 -9 5 -9 6 0 8 -4 5 -10 -3 -5 1 -10 10 -10
11 0 15 -5 11 -15 -3 -8 -1 -15 4 -15 6 0 10 -7 10 -15 0 -8 4 -15 9 -15 7 0
19 -27 19 -46 1 -3 10 -14 22 -24 12 -10 22 -22 22 -27 1 -14 17 -49 17 -38 1
5 9 -6 20 -25 10 -19 16 -39 13 -44 -3 -5 -1 -6 5 -3 6 4 15 -5 21 -18 7 -14
16 -25 22 -25 6 0 9 -4 5 -9 -3 -5 -1 -12 5 -16 6 -4 7 -12 4 -18 -4 -7 -4 -9
1 -5 9 8 35 -15 35 -32 0 -6 5 -8 10 -5 6 3 10 -1 10 -10 0 -10 5 -13 12 -9 7
4 8 3 4 -4 -4 -7 8 -27 29 -47 19 -20 35 -40 35 -46 0 -6 5 -7 10 -4 6 3 13
-1 16 -9 3 -9 10 -16 16 -16 5 0 20 -11 34 -25 14 -14 30 -23 35 -20 5 4 9 -2
9 -11 0 -10 3 -15 6 -11 4 3 13 -1 21 -9 8 -8 19 -12 24 -9 5 4 9 2 9 -3 0 -9
37 -25 53 -23 4 1 16 -3 26 -9 28 -15 96 -21 206 -20 55 1 108 1 118 1 9 0 15
3 13 7 -3 4 4 8 15 8 10 0 19 -3 19 -7 0 -4 13 -1 30 7 16 9 35 12 41 8 8 -4
9 -3 5 4 -6 11 6 16 27 13 4 0 7 3 7 9 0 6 3 9 8 8 11 -3 82 25 82 33 0 4 11
10 25 13 14 4 25 11 25 17 0 6 5 7 10 4 6 -3 13 1 16 9 3 9 12 16 20 16 8 0
14 5 14 10 0 6 7 10 15 10 8 0 15 5 15 10 0 6 5 10 11 10 6 0 20 11 31 25 11
14 24 23 29 20 5 -4 9 -2 9 4 0 16 46 61 55 53 5 -4 6 -2 2 4 -3 5 10 28 29
50 50 56 56 64 49 64 -4 0 0 7 7 15 29 33 38 45 33 45 -4 0 1 7 9 16 9 8 16
22 16 30 0 8 5 12 10 9 9 -6 12 -2 14 28 1 6 7 18 14 25 7 8 10 18 7 23 -4 5
-1 9 5 9 6 0 9 4 5 9 -3 5 3 17 12 27 10 10 17 18 15 18 -2 1 2 15 9 31 7 17
12 33 11 38 -1 4 2 7 8 7 6 0 9 3 9 8 -1 4 0 9 1 12 4 11 11 46 13 67 1 11 5
19 10 16 4 -2 7 4 7 14 0 11 6 25 13 32 9 11 9 12 0 7 -9 -5 -11 -2 -7 8 3 9
11 16 16 16 6 0 7 7 4 16 -4 9 -1 23 5 30 6 8 9 23 6 33 -3 12 1 22 11 26 13
5 14 8 3 14 -10 6 -10 10 -2 16 7 3 9 15 6 26 -4 11 -2 19 6 19 8 0 8 5 -2 17
-8 9 -9 14 -3 10 7 -4 14 2 17 13 3 13 1 18 -6 13 -9 -5 -8 -2 0 8 7 8 12 24
13 34 1 54 5 75 13 75 5 0 4 7 -3 15 -7 8 -8 15 -3 15 5 0 9 11 9 25 0 14 -4
25 -9 25 -5 0 -4 7 3 15 7 8 10 24 7 35 -3 11 -2 20 2 20 11 0 7 74 -4 82 -7
5 -7 8 0 8 11 0 15 190 4 190 -3 0 -3 14 -1 31 3 20 0 34 -9 40 -8 5 -9 9 -3
9 12 0 13 38 1 58 -5 7 -3 12 5 12 10 0 9 3 -2 10 -8 5 -11 12 -8 16 4 4 3 15
-3 25 -7 14 -6 19 2 19 8 0 9 4 0 13 -8 10 -7 17 1 25 8 8 7 13 -4 17 -11 4
-15 17 -12 41 2 20 -1 32 -6 29 -6 -3 -7 1 -4 10 4 8 1 22 -6 30 -10 12 -10
15 1 15 10 0 10 3 1 12 -7 7 -12 25 -12 41 0 15 -3 26 -7 24 -5 -3 -9 11 -10
31 -1 20 -7 38 -13 40 -7 3 -7 9 2 20 10 12 10 14 1 8 -9 -5 -13 1 -13 18 0
14 -4 26 -10 26 -5 0 -7 6 -4 14 3 8 0 17 -6 21 -8 5 -7 11 2 23 11 13 11 14
-1 8 -9 -6 -12 -5 -9 5 2 7 -1 25 -8 38 -7 14 -11 28 -8 33 3 4 0 8 -6 8 -6 0
-9 4 -6 8 3 5 -2 21 -10 36 -8 16 -16 39 -18 52 -3 12 -11 38 -20 56 -9 18
-17 44 -18 58 -2 14 -12 33 -23 43 -11 10 -14 16 -8 12 8 -3 6 6 -5 24 -9 17
-24 31 -32 32 -8 0 -10 3 -4 5 5 2 -9 25 -33 51 -32 34 -40 49 -31 55 10 6 10
10 -2 18 -8 5 -11 10 -7 10 4 0 3 10 -4 21 -8 16 -8 20 1 14 9 -5 9 -1 -1 16
-7 13 -12 25 -11 27 1 1 1 5 1 10 -1 4 -1 15 0 25 1 9 -3 17 -8 17 -6 0 -11 9
-11 19 0 11 -5 23 -11 26 -6 4 -8 13 -5 21 3 8 1 14 -5 14 -6 0 -7 5 -4 10 3
6 -2 10 -12 11 -10 0 -13 3 -6 6 10 3 9 8 -2 20 -8 8 -13 19 -10 24 4 5 1 9
-5 9 -6 0 -9 4 -6 9 3 5 -1 12 -10 15 -8 3 -12 10 -9 16 3 5 2 10 -2 10 -5 0
-15 16 -22 35 -7 19 -17 33 -22 29 -5 -3 -8 -2 -7 3 4 14 -25 83 -34 83 -5 0
-6 5 -3 10 3 6 1 10 -5 10 -7 0 -10 6 -7 14 3 8 -1 17 -9 20 -8 3 -14 10 -14
15 0 6 -16 35 -35 65 -19 30 -35 60 -35 66 0 5 -4 10 -10 10 -5 0 -10 9 -10
21 0 11 -4 18 -8 15 -4 -2 -14 4 -21 16 -7 11 -8 17 -2 14 6 -4 -2 11 -16 34
-15 22 -31 40 -35 40 -5 0 -6 5 -3 10 3 6 1 10 -4 10 -6 0 -11 5 -11 10 0 11
-10 24 -42 61 -10 10 -18 21 -18 24 0 3 0 9 0 13 0 5 -8 17 -18 28 -26 28 -57
78 -54 87 1 4 -5 7 -15 7 -9 0 -14 3 -11 6 8 8 -31 66 -84 125 -12 13 -14 19
-5 20 6 0 2 5 -10 11 -13 6 -23 15 -23 20 0 4 0 10 -1 12 -1 11 -78 86 -87 86
-6 0 -13 8 -16 18 -3 10 -25 24 -48 32 -28 10 -44 22 -47 35 -2 11 -10 24 -17
28 -8 5 -12 12 -9 18 4 5 1 9 -5 9 -6 0 -9 4 -5 9 3 5 -1 16 -9 24 -8 8 -12
17 -9 21 4 3 1 6 -6 6 -7 0 -9 5 -6 10 3 5 1 10 -5 10 -6 0 -9 4 -5 9 3 5 -5
17 -17 25 -12 9 -19 16 -14 16 4 0 -13 20 -38 43 -25 24 -46 49 -46 55 0 7 -6
11 -12 9 -7 -1 -12 4 -11 11 2 6 -4 12 -12 12 -8 0 -15 7 -15 16 0 8 -4 13 -9
9 -5 -3 -12 4 -16 15 -3 11 -11 20 -16 20 -13 0 -40 26 -34 32 3 3 -6 11 -20
18 -14 7 -25 22 -25 32 0 10 -3 17 -7 17 -22 -4 -33 3 -33 18 0 9 -3 14 -6 10
-3 -3 -21 9 -39 26 -55 52 -84 75 -90 69 -3 -3 -5 0 -5 6 0 6 -17 23 -37 37
-21 14 -34 25 -30 25 4 0 2 6 -5 14 -7 8 -15 12 -17 10 -2 -1 -20 12 -39 31
-20 19 -48 40 -62 47 -14 7 -34 21 -44 31 -11 9 -25 17 -32 17 -6 0 -15 7 -18
16 -3 8 -10 13 -14 10 -5 -3 -15 4 -22 15 -8 10 -20 19 -26 19 -6 0 -17 7 -24
15 -7 9 -19 14 -26 11 -8 -3 -13 0 -11 7 1 7 -4 11 -10 10 -7 -2 -13 2 -13 7
0 6 -6 10 -13 10 -8 0 -22 9 -32 20 -10 11 -27 20 -37 20 -11 0 -16 5 -13 10
3 6 -1 10 -9 10 -9 0 -16 5 -16 10 0 6 -6 10 -14 10 -7 0 -25 9 -39 20 -14 11
-33 20 -42 20 -9 0 -13 5 -10 10 3 6 -2 10 -12 10 -10 0 -29 9 -43 20 -14 11
-32 20 -41 20 -9 0 -22 7 -29 15 -11 13 -15 13 -21 3 -5 -8 -9 -9 -9 -2 0 6
-21 19 -47 29 -27 10 -55 24 -64 32 -14 12 -18 12 -22 1 -3 -8 -6 -5 -6 7 -1
14 -4 16 -12 8 -9 -9 -15 -8 -26 3 -8 8 -19 12 -24 9 -5 -4 -9 -1 -9 4 0 6
-12 11 -26 11 -14 0 -23 4 -19 9 3 6 -4 8 -15 6 -11 -2 -20 0 -20 5 0 5 -7 7
-15 4 -8 -4 -15 -1 -15 7 0 7 -3 10 -6 6 -3 -3 -23 1 -45 8 -21 8 -39 12 -39
8 0 -3 -12 2 -26 12 -15 9 -23 11 -19 4 6 -8 4 -10 -6 -3 -8 4 -21 9 -29 11
-8 1 -16 7 -18 13 -2 5 -9 7 -15 3 -6 -4 -8 0 -4 10 4 10 2 17 -5 17 -7 0 -6
5 2 15 7 8 10 15 6 15 -3 0 10 17 29 37 19 20 35 41 35 46 0 4 5 5 10 2 9 -6
14 8 11 28 0 4 6 7 15 7 8 0 13 4 9 9 -3 6 4 15 16 21 11 7 18 14 16 17 -6 5
17 36 46 62 9 8 17 20 17 25 0 5 12 20 28 34 15 13 20 21 12 17 -10 -4 -9 -1
2 8 10 8 15 17 11 20 -3 4 -1 7 5 7 6 0 14 10 18 23 4 12 18 40 32 61 13 22
25 46 26 54 2 9 11 19 22 23 13 5 14 8 4 8 -13 1 -13 2 0 11 8 5 11 12 8 16
-4 3 0 13 8 21 8 9 13 21 10 29 -3 7 -1 14 5 16 5 2 11 14 14 27 2 14 9 29 15
35 5 5 10 20 10 32 0 13 4 25 10 29 5 3 7 12 4 19 -3 8 0 17 5 21 6 3 9 11 5
16 -3 5 -1 15 4 22 5 7 10 19 10 27 2 26 9 65 12 65 1 0 4 20 6 45 3 53 7 71
17 87 4 6 3 14 -3 18 -6 4 -7 12 0 24 6 12 5 22 -2 29 -9 9 -9 12 0 12 9 0 10
5 2 19 -6 12 -6 22 -1 26 13 7 10 48 -4 57 -6 5 -5 8 4 8 11 0 11 3 1 15 -7 9
-8 15 -2 15 11 0 11 25 0 35 -3 4 -2 20 2 36 5 16 5 29 1 29 -4 0 -8 7 -8 15
0 8 5 15 11 15 6 0 6 4 -2 8 -7 5 -13 29 -15 55 -1 26 -6 47 -10 47 -5 0 -7 8
-6 18 1 9 -3 28 -8 42 -6 14 -9 33 -7 43 1 9 -2 17 -8 17 -5 0 -8 7 -4 15 3 8
0 15 -6 15 -6 0 -9 3 -5 6 7 8 -13 64 -24 64 -4 0 -6 6 -3 14 3 8 1 17 -5 21
-6 3 -11 15 -11 26 0 10 -5 19 -11 19 -5 0 -7 5 -4 10 3 6 1 10 -5 10 -6 0 -8
5 -4 12 4 6 -1 17 -11 25 -11 7 -16 13 -12 13 4 0 -2 16 -13 37 -10 20 -16 41
-13 46 4 7 -1 8 -12 3 -16 -6 -16 -4 -4 11 8 10 9 14 2 10 -14 -9 -46 46 -35
58 4 5 1 5 -5 1 -12 -6 -14 0 -13 29 1 10 -49 55 -60 55 -6 0 -9 4 -6 8 3 5
-4 14 -14 22 -10 8 -17 17 -14 22 3 4 -2 8 -10 8 -9 0 -16 5 -16 11 0 12 -80
89 -93 89 -4 0 -6 4 -3 8 3 5 -6 15 -19 22 -13 7 -22 17 -19 22 3 4 0 8 -5 8
-17 0 -50 33 -44 43 3 6 1 7 -5 3 -7 -4 -12 -2 -12 3 0 6 -6 11 -14 11 -8 0
-18 9 -21 20 -4 11 -11 18 -16 15 -5 -4 -20 6 -34 21 -14 15 -25 23 -25 18 0
-5 -5 -1 -11 9 -5 9 -14 17 -20 17 -5 0 -19 9 -31 20 -12 11 -28 20 -35 20 -7
0 -13 7 -13 15 0 8 -6 12 -13 9 -7 -2 -22 4 -33 15 -12 10 -40 29 -63 40 -22
12 -41 26 -41 32 0 6 -4 8 -9 5 -10 -6 -65 20 -89 42 -7 6 -16 12 -18 12 -3 0
-2 -6 1 -12 4 -7 0 -5 -8 5 -8 9 -20 17 -26 17 -7 0 -19 7 -28 15 -8 8 -19 13
-24 10 -5 -4 -9 -2 -9 4 0 6 -7 8 -15 5 -8 -4 -15 -2 -15 4 0 5 -20 16 -45 23
-25 7 -45 17 -45 22 0 4 -4 6 -9 2 -5 -3 -13 0 -16 6 -4 5 -13 8 -21 5 -8 -3
-14 -1 -14 5 0 6 -7 9 -15 5 -8 -3 -15 -2 -15 3 0 4 -6 8 -12 9 -33 3 -52 10
-56 20 -2 6 -10 8 -17 6 -8 -3 -20 -2 -27 2 -7 5 -24 10 -38 12 -13 2 -30 7
-36 13 -6 5 -14 6 -17 2 -4 -3 -7 -2 -7 3 0 5 -17 10 -38 10 -53 2 -91 11
-110 26 -12 10 -14 10 -8 1 12 -22 -10 -14 -39 13 -27 25 -27 25 -9 46 11 12
13 18 7 14 -19 -11 -16 5 5 21 9 8 11 12 5 8 -15 -7 -17 4 -4 24 6 9 6 22 0
32 -6 11 -5 20 1 24 5 3 8 19 6 35 -2 17 0 30 4 30 4 0 4 20 0 45 -4 25 -4 45
-1 45 3 0 -1 5 -9 10 -11 7 -11 10 -2 10 8 0 10 5 5 13 -4 6 -8 17 -9 22 -10
54 -14 69 -21 74 -4 3 -9 17 -11 31 -1 13 -7 27 -13 31 -6 3 -11 9 -11 12 0
16 -11 47 -17 47 -3 0 -12 14 -19 30 -8 17 -20 30 -28 30 -8 0 -13 3 -13 8 3
20 -2 32 -16 32 -8 0 -23 13 -33 28 -9 16 -23 27 -29 25 -7 -3 -13 3 -13 12 0
9 -5 13 -10 10 -6 -3 -13 1 -16 10 -4 9 -13 14 -20 11 -8 -3 -14 -1 -14 4 0 5
-11 12 -25 16 -14 3 -23 9 -21 13 3 4 -5 8 -16 8 -12 1 -24 7 -28 13 -6 10
-38 15 -82 11 -15 -1 -35 -52 -30 -74 2 -5 -2 -6 -7 -3 -5 3 -12 -1 -15 -10
-5 -12 -10 -14 -20 -5 -7 6 -17 7 -21 3 -5 -4 -5 -2 -2 5 4 6 1 14 -5 16 -10
4 -10 6 0 6 6 1 12 6 12 11 0 6 -3 9 -7 9 -19 -3 -33 2 -33 12 0 5 6 7 13 3 8
-5 8 -3 -2 9 -7 9 -18 14 -23 11 -6 -4 -3 5 6 19 13 20 14 26 4 30 -10 4 -10
6 0 6 10 1 10 6 1 22 -6 12 -7 19 -1 15 15 -9 22 20 9 34 -9 10 -9 11 2 5 11
-6 13 -3 9 13 -4 12 -2 22 4 22 5 0 7 4 4 9 -4 5 0 11 6 14 10 3 10 8 -2 23
-14 17 -14 18 2 6 11 -9 18 -10 23 -2 3 5 0 10 -7 11 -7 0 -4 4 7 9 13 6 15 9
5 9 -13 1 -13 3 -1 10 8 5 16 16 17 24 2 13 -14 16 -97 15 -91 0 -98 -1 -89
-17z m332 -719 c3 7 7 3 10 -10 4 -12 2 -20 -3 -17 -4 3 -2 -7 6 -22 11 -21
12 -29 2 -35 -9 -6 -8 -8 3 -9 10 0 8 -3 -5 -9 -18 -8 -18 -9 -2 -9 10 -1 15
-6 12 -11 -4 -6 -10 -8 -14 -6 -4 3 -7 -13 -6 -35 1 -31 -2 -38 -13 -34 -11 4
-12 2 -5 -7 12 -16 13 -49 1 -42 -4 3 -8 -1 -8 -8 0 -7 -11 -26 -25 -42 -14
-16 -25 -26 -25 -21 0 4 -6 2 -13 -4 -8 -6 -17 -8 -20 -4 -4 3 -7 2 -7 -3 0
-6 -34 -10 -75 -11 -41 0 -72 3 -70 7 3 5 -4 6 -15 3 -11 -3 -20 0 -20 6 0 6
-7 11 -16 11 -8 0 -12 5 -9 10 3 6 -1 10 -10 10 -9 0 -14 4 -11 9 3 5 -1 11
-9 15 -8 3 -15 15 -15 26 0 11 -5 20 -11 20 -6 0 -9 7 -5 15 3 8 1 15 -4 15
-5 0 -6 7 -3 17 4 11 3 14 -5 9 -8 -5 -12 1 -12 15 0 16 -5 20 -18 17 -11 -3
-19 0 -19 8 0 7 5 10 10 7 6 -4 7 -1 2 8 -5 7 -9 26 -10 41 -1 21 1 25 11 17
10 -8 12 -6 9 10 -2 11 1 24 7 27 7 4 8 2 4 -4 -4 -7 0 -12 11 -13 10 0 13 -3
6 -6 -7 -2 -13 -12 -13 -21 0 -15 2 -15 10 -2 5 8 10 10 10 4 0 -7 7 -15 16
-18 9 -4 13 -2 8 6 -4 6 7 3 25 -8 17 -10 31 -24 31 -32 0 -7 7 -20 16 -29 8
-9 13 -22 10 -30 -3 -7 1 -16 9 -19 8 -4 12 -11 9 -16 -5 -7 0 -7 12 0 12 7
25 7 36 1 13 -7 16 -6 12 4 -3 9 2 13 18 12 13 -1 28 2 35 7 7 5 16 7 21 4 4
-3 14 4 22 14 8 10 17 17 21 15 4 -3 15 7 24 21 11 18 12 24 4 18 -12 -6 -12
-5 0 9 11 14 11 17 0 17 -8 0 -6 5 6 13 14 11 15 16 5 22 -10 6 -9 9 1 16 12
7 11 9 0 9 -11 0 -10 4 5 16 10 8 13 12 5 8 -10 -5 -12 -3 -6 6 6 10 11 9 21
-4 9 -12 13 -14 16 -4z"/>
</g>
</svg>
